<?xml version="1.0" standalone="no"?>
<!DOCTYPE svg PUBLIC "-//W3C//DTD SVG 20010904//EN"
 "http://www.w3.org/TR/2001/REC-SVG-20010904/DTD/svg10.dtd">
<svg version="1.0" xmlns="http://www.w3.org/2000/svg"
 width="218.000000pt" height="218.000000pt" viewBox="0 0 218.000000 218.000000"
 preserveAspectRatio="xMidYMid meet">
<metadata>
Created by potrace 1.11, written by Peter Selinger 2001-2013
</metadata>
<g transform="translate(0.000000,218.000000) scale(0.100000,-0.100000)"
fill="#000000" stroke="none">
<path d="M0 1090 l0 -550 1090 0 1090 0 0 550 0 550 -1090 0 -1090 0 0 -550z
m310 470 l0 -30 -100 0 -100 0 0 -65 0 -65 125 0 125 0 0 95 0 95 38 0 c109
-1 270 -69 358 -152 72 -67 113 -135 139 -226 12 -41 25 -70 29 -63 10 16 48
14 72 -4 14 -10 48 -14 127 -15 l107 0 0 155 0 155 135 0 135 0 0 75 0 76 162
-109 c157 -106 162 -108 180 -90 23 23 49 23 81 -2 19 -15 40 -20 86 -20 l61
0 0 80 0 80 -197 0 c-192 0 -197 1 -240 25 -23 14 -43 28 -43 30 0 3 124 5
275 5 l275 0 0 -500 0 -500 -275 0 c-151 0 -275 2 -275 4 0 2 20 16 44 30 44
26 48 26 240 26 l196 0 0 80 0 80 -63 0 c-51 0 -68 -4 -82 -20 -21 -23 -61
-26 -84 -6 -14 12 -36 0 -176 -90 l-160 -103 -3 94 -3 95 -134 0 -135 0 0 145
0 145 -109 0 c-87 0 -111 -3 -122 -16 -9 -11 -25 -15 -49 -12 l-37 3 -11 -52
c-38 -181 -203 -341 -403 -388 -35 -8 -81 -15 -101 -15 l-38 0 0 100 0 100
-125 0 -125 0 0 -70 0 -70 100 0 100 0 0 -30 0 -30 -130 0 -130 0 0 500 0 500
130 0 130 0 0 -30z m1140 0 l0 -30 -372 2 -373 3 -60 27 -60 28 433 0 432 0 0
-30z m0 -940 l0 -30 -432 1 -433 0 50 20 c28 11 54 25 60 30 5 5 166 9 382 9
l373 0 0 -30z"/>
<path d="M420 1090 l0 -433 48 7 c71 10 185 68 247 127 37 35 68 77 93 128 35
71 37 80 37 171 0 91 -2 100 -37 171 -25 51 -56 93 -93 128 -62 59 -176 117
-247 127 l-48 7 0 -433z"/>
<path d="M1560 1341 c0 -72 3 -131 6 -131 7 0 194 121 194 126 0 3 -153 107
-187 128 -10 6 -13 -22 -13 -123z"/>
<path d="M1300 1110 l0 -270 100 0 100 0 0 270 0 270 -100 0 -100 0 0 -270z"/>
<path d="M110 1095 l0 -235 120 0 120 0 0 235 0 235 -120 0 -120 0 0 -235z"/>
<path d="M1926 1295 c-8 -22 -53 -29 -79 -13 -21 14 -31 9 -179 -86 -87 -56
-157 -104 -155 -108 1 -4 72 -54 157 -112 136 -92 157 -103 171 -90 20 18 63
18 79 -1 9 -11 32 -15 81 -15 l69 0 0 220 0 220 -69 0 c-51 0 -70 -4 -75 -15z"/>
<path d="M1560 841 c0 -72 3 -131 6 -131 7 0 194 121 194 126 0 3 -153 107
-187 128 -10 6 -13 -22 -13 -123z"/>
</g>
</svg>
