<svg preserveAspectRatio="none" width="218" height="110" viewBox="0 0 218 110" fill="none" xmlns="http://www.w3.org/2000/svg">
<rect width="218" height="110" fill="#01172F"/>
<rect x="7.90952" y="8.1" width="202.53" height="93.8" fill="#01172F" stroke="white" stroke-width="6.2"/>
<ellipse cx="188.069" cy="29.962" rx="6.15467" ry="6.81614" fill="white"/>
<ellipse cx="188.069" cy="80.4937" rx="6.15467" ry="6.81614" fill="white"/>
<path d="M92.1111 54.2691H126.605V22.7948M126.605 22.7948H150.704M126.605 22.7948V83.3222H150.704" stroke="white" stroke-width="6.20391"/>
<path d="M153.15 49.3254V10.846L182.337 30.6057L153.15 49.3254Z" stroke="white" stroke-width="6.20391"/>
<path d="M153.15 99.3254V60.846L182.337 80.6057L153.15 99.3254Z" stroke="white" stroke-width="6.20391"/>
<line x1="182.708" y1="29.8611" x2="212.25" y2="29.8611" stroke="white" stroke-width="6.2"/>
<line x1="182.708" y1="79.9952" x2="212.25" y2="79.9952" stroke="white" stroke-width="6.2"/>
<path d="M37.3492 5H47.2698H57.1905L59.9683 5.79365C59.9683 5.79365 63.9072 7.07758 66.3175 8.1746C69.7045 9.71622 74.5714 12.9365 74.5714 12.9365H65.9921L37.3492 5Z" fill="#01172F"/>
<path d="M37.3492 105H47.2698H57.1905L59.9683 104.206C59.9683 104.206 63.9072 102.922 66.3175 101.825C69.7045 100.284 74.5714 97.0635 74.5714 97.0635H65.9921L37.3492 105Z" fill="#01172F"/>
<path d="M88.2174 55C88.2174 79.7041 66.8241 100.369 39.2587 101.819V8.18127C66.8241 9.6313 88.2174 30.2959 88.2174 55Z" stroke="white" stroke-width="6.2"/>
<circle cx="95.587" cy="54.2441" r="6.15467" fill="white"/>
<path d="M38.5113 55.3929V27.4097M38.5113 27.4097V81.5708H7.98413M38.5113 27.4097H7.98413" stroke="white" stroke-width="6.20391"/>
<path d="M31.2381 5H36.1587V12.9365H31.2381V5Z" fill="#01172F"/>
<path d="M31.2381 97.0635H36.1587V105H31.2381V97.0635Z" fill="#01172F"/>
<path d="M145.127 5H150.048V12.9365H145.127V5Z" fill="#01172F"/>
<path d="M145.127 97.0635H150.048V105H145.127V97.0635Z" fill="#01172F"/>
<path d="M150.048 5H157.984L170.5 12.9365H161.77L150.048 5Z" fill="#01172F"/>
<path d="M150.048 105H157.984L171.151 97.0635H162.421L150.048 105Z" fill="#01172F"/>
</svg>
