<svg width="411" height="478" viewBox="0 0 411 478" fill="none" xmlns="http://www.w3.org/2000/svg">
<path d="M-127 405.057C-127 323.832 -50.5163 264.333 28.2132 284.313L32.3558 285.364C68.5163 294.541 106.884 285.799 135.5 261.864C144.572 254.276 154.749 248.117 165.679 243.601L176.686 239.052C217.818 222.056 263.547 219.737 306.187 232.484L308.638 233.217C317.893 235.984 326.937 239.414 335.699 243.482L341.91 246.365C386.106 266.882 434.737 276.652 483.205 271.646C499.84 269.928 516.819 267.852 531.233 265.437C572.193 258.574 593.939 248.29 634.964 241.844C674.093 235.697 696.538 228.7 735.944 232.615C745.055 233.521 755.059 235.544 765.156 238.165C815.165 251.148 867.79 257.21 917.261 242.308L925.612 239.792C969.682 226.517 1017.09 229.822 1058.89 249.086C1128.58 281.203 1209.95 266.64 1271.54 220.863C1291.77 205.824 1312.81 191.591 1332.11 181.145C1334.49 179.857 1336.97 178.562 1339.52 177.264C1387.33 152.922 1441 191.265 1441 244.924C1441 415.069 1303.07 553 1132.92 553H7.79749C-66.6491 553 -127 492.649 -127 418.202V405.057Z" fill="#446DF6" fill-opacity="0.37"/>
<path d="M-127 240.704C-127 174.843 -64.4371 126.967 -0.864792 144.18L18.446 149.409C54.0749 159.056 91.2861 147.224 120.132 124.194C124.122 121.008 128.082 118.051 131.861 115.519C162.196 95.1925 180.896 78.855 217.23 77.8821C244.698 77.1465 282.778 96.3304 292.177 101.31C293.632 102.081 295.076 102.842 296.552 103.573L338.629 124.414C362.303 136.14 389.613 137.861 415.087 130.86C437.407 124.725 465.202 118.072 487.427 115.892C527.388 111.971 550.264 122.691 590.198 118.5C626.662 114.673 645.175 96.3641 681.808 97.7192C700.268 98.402 722.396 105.358 740.947 112.691C766.353 122.733 794.497 125.812 820.505 117.453L885.221 96.6542C909.895 88.7242 936.684 90.6833 959.942 102.119L1034.87 138.957C1070 156.233 1111.99 151.413 1142.3 126.626L1233.83 51.7641C1238.31 48.1028 1243.24 45.04 1248.51 42.6529C1292.61 22.6665 1342.63 54.9147 1342.63 103.336V110.027V318.104C1342.63 373.332 1297.86 418.104 1242.63 418.104H-27C-82.2285 418.104 -127 373.332 -127 318.104V240.704Z" fill="url(#paint0_linear)"/>
<defs>
<linearGradient id="paint0_linear" x1="607.816" y1="0" x2="607.816" y2="418.104" gradientUnits="userSpaceOnUse">
<stop offset="0.337565" stop-color="#446DF6"/>
<stop offset="0.515608" stop-color="#446DF6" stop-opacity="0.628662"/>
<stop offset="0.727419" stop-color="#446DF6" stop-opacity="0.405558"/>
<stop offset="1" stop-color="#446DF6" stop-opacity="0"/>
</linearGradient>
</defs>
</svg>
