<svg width="1813" height="1080" viewBox="0 0 1813 1080" fill="none" xmlns="http://www.w3.org/2000/svg">
<path d="M1904.86 2200.71C1904.86 2200.71 1773.29 2213.23 1766.34 2128.11C1761.83 2072.9 1763.88 2166.89 1769.15 1929.92C1774.43 1692.96 1552.33 1878.3 1517.75 1759.53C1471.15 1599.42 1671.21 1557.01 1774.3 1381.02C1877.38 1205.03 1622.64 974.894 1385.23 1166.28C1220.49 1250.47 1383.12 857.262 1383.12 857.262C1383.12 857.262 1486.43 704.837 1495.15 580.897C1470.46 345.972 1189.57 442.791 1113.11 255.973C1077.73 169.534 1099.87 104.091 1068.14 15.8176C1017.08 -126.215 850.238 -292.581 850.238 -292.581L929.821 -410L2810.43 864.615L1904.86 2200.71Z" fill="url(#paint0_linear)"/>
<defs>
<linearGradient id="paint0_linear" x1="940.302" y1="1599.19" x2="1870.12" y2="227.307" gradientUnits="userSpaceOnUse">
<stop stop-color="#446DF6"/>
<stop offset="0.427083" stop-color="#446DF6" stop-opacity="0.947993"/>
<stop offset="0.506045" stop-color="#446DF6" stop-opacity="0.885055"/>
<stop offset="0.716911" stop-color="#446DF6" stop-opacity="0.548098"/>
<stop offset="0.894849" stop-color="#446DF6" stop-opacity="0.377235"/>
<stop offset="1" stop-color="#446DF6" stop-opacity="0"/>
<stop offset="1" stop-color="#446DF6" stop-opacity="0.233351"/>
</linearGradient>
</defs>
</svg>
