<svg preserveAspectRatio="none" width="768" height="554" viewBox="0 0 768 554" fill="none" xmlns="http://www.w3.org/2000/svg">
<path d="M-328 426.785C-328 347.179 -252.099 289.505 -175.404 310.834L-171.198 312.004C-133.796 322.405 -93.6734 312.785 -65.0548 286.553V286.553C-56.2822 278.512 -46.2893 271.914 -35.4488 267.005L-25.2978 262.409C16.2328 243.603 63.3032 241.044 106.627 255.238L107.918 255.66C116.985 258.631 125.81 262.295 134.314 266.622L140.641 269.84C184.891 292.352 234.432 303.153 283.757 297.504C299.893 295.656 316.267 293.441 330.233 290.877C371.193 283.356 392.939 272.086 433.964 265.023C473.093 258.286 495.538 250.619 534.944 254.909C544.134 255.91 554.233 258.158 564.42 261.067C614.195 275.281 667.105 281.757 716.261 265.531L723.822 263.035C768.118 248.413 816.411 252.013 858.05 273.04V273.04C926.555 307.635 1008.8 292.676 1068.14 243.997C1089.1 226.795 1111.04 210.408 1131.11 198.506V198.506C1180.85 169.014 1240 210.571 1240 268.397V268.397V268.397C1240 454.85 1088.85 606 902.397 606H-182.233C-262.738 606 -328 540.738 -328 460.233V426.785Z" fill="#446DF6" fill-opacity="0.37"/>
<path d="M-328 254.553C-328 187.693 -263.653 139.665 -199.554 158.684L-186.789 162.472C-148.999 173.684 -109.18 160.423 -79.288 134.726C-75.8343 131.757 -72.4187 128.999 -69.139 126.59C-38.8038 104.316 -20.1036 86.4126 16.2301 85.3464C43.6444 84.5419 81.6292 105.481 91.1212 110.987C92.6172 111.855 94.098 112.711 95.618 113.536L134.902 134.858C160.135 148.554 189.978 150.533 217.506 142.38C239.198 135.955 265.323 129.268 286.427 126.999C326.388 122.702 349.264 134.45 389.199 129.857C425.662 125.664 444.175 105.6 480.808 107.085C498.277 107.793 519.031 114.657 536.93 122.202C564.254 133.72 594.951 137.358 622.919 127.508L680.969 107.063C707.539 97.7054 736.823 99.9879 761.621 113.349L829.691 150.025C866.804 170.022 912.472 164.596 943.866 136.459L1032.99 56.5837C1037.36 52.6667 1042.24 49.3582 1047.5 46.7478V46.7478C1090.81 25.2392 1141.63 56.7464 1141.63 105.105V120.572V358.175C1141.63 413.404 1096.86 458.175 1041.63 458.175H-228C-283.228 458.175 -328 413.404 -328 358.175V254.553Z" fill="url(#paint0_linear)"/>
<defs>
<linearGradient id="paint0_linear" x1="406.816" y1="0" x2="406.816" y2="458.175" gradientUnits="userSpaceOnUse">
<stop offset="0.337565" stop-color="#446DF6"/>
<stop offset="0.515608" stop-color="#446DF6" stop-opacity="0.628662"/>
<stop offset="0.727419" stop-color="#446DF6" stop-opacity="0.405558"/>
<stop offset="1" stop-color="#446DF6" stop-opacity="0"/>
</linearGradient>
</defs>
</svg>
