<svg width="1920" height="555" viewBox="0 0 1920 555" fill="none" xmlns="http://www.w3.org/2000/svg">
<path d="M-82 547.192C-82 436.172 22.3309 354.71 130.036 381.633L135.613 383.027C184.611 395.274 236.515 383.554 275.495 351.439C287.917 341.205 301.817 332.914 316.724 326.847L331.903 320.669C387.848 297.899 449.864 294.791 507.805 311.852L511.388 312.907C524.035 316.631 536.4 321.252 548.39 326.734L556.826 330.592C617.02 358.116 683.082 371.207 748.932 364.519C771.694 362.208 794.947 359.412 814.675 356.156C870.472 346.947 900.095 333.149 955.981 324.5C1009.28 316.251 1039.86 306.863 1093.54 312.117C1105.94 313.33 1119.54 316.04 1133.28 319.55C1201.45 336.972 1273.08 345.136 1340.54 325.122L1352.08 321.697C1412.07 303.899 1476.46 308.339 1533.43 334.2C1628.63 377.408 1739.3 357.668 1823.68 295.963C1851.08 275.926 1879.53 256.982 1905.67 243.055C1909.44 241.044 1913.39 239.019 1917.47 236.992C1982.08 204.883 2054 256.481 2054 328.632C2054 556.929 1868.93 742 1640.63 742H99.244C-0.854279 742 -82 660.854 -82 560.756V547.192Z" fill="#446DF6" fill-opacity="0.37"/>
<path d="M-82 277.796C-82 212.092 -19.7166 164.242 43.7687 181.173L137.784 206.246C173.056 215.653 210.307 204.672 237.805 180.664C248.618 171.223 260.136 161.927 270.632 155C311.956 127.727 337.43 105.805 386.926 104.5C425.206 103.49 478.616 130.454 489.843 136.365C491.288 137.126 492.699 137.858 494.167 138.574L566.133 173.684C589.55 185.108 616.454 186.863 641.514 179.733C673.62 170.598 719.52 158.929 755 155.5C809.437 150.239 840.599 164.623 895 159C944.672 153.865 969.891 129.299 1019.8 131.117C1050.08 132.22 1087.61 145.532 1115.16 157.234C1139.96 167.771 1167.75 170.57 1193.44 162.438L1311.35 125.113C1335.71 117.399 1362.11 119.308 1385.11 130.449L1522.32 196.896C1557.12 213.751 1598.52 209.029 1628.64 184.77L1771.76 69.4772C1777.88 64.55 1784.6 60.4345 1791.78 57.2331C1852.03 30.3385 1920 74.4334 1920 140.417V147.632V461C1920 516.228 1875.23 561 1820 561H18C-37.2284 561 -82 516.228 -82 461V277.796Z" fill="url(#paint0_linear)"/>
<defs>
<linearGradient id="paint0_linear" x1="919" y1="0" x2="919" y2="561" gradientUnits="userSpaceOnUse">
<stop offset="0.337565" stop-color="#446DF6"/>
<stop offset="0.515608" stop-color="#446DF6" stop-opacity="0.628662"/>
<stop offset="0.727419" stop-color="#446DF6" stop-opacity="0.405558"/>
<stop offset="1" stop-color="#446DF6" stop-opacity="0"/>
</linearGradient>
</defs>
</svg>
